<svg id="straight-right-arrow" xmlns="http://www.w3.org/2000/svg" width="113.456" height="60.421" viewBox="0 0 113.456 60.421">
  <path id="Tracé_18" data-name="Tracé 18" d="M2.072,52.214,37.491,26.66c3.661-2.572,9.152-.249,9.152,3.982v8.546a5,5,0,0,0,5.034,5.144h56.287c3.02,0,5.491,1.991,5.491,4.812V62.586a5.325,5.325,0,0,1-5.491,4.978H51.677a4.8,4.8,0,0,0-5.034,4.9V81c0,2.3-1.685,4.036-4.094,4.777a5.8,5.8,0,0,1-4.966-.877L2.255,60.014A4.6,4.6,0,0,1,2.072,52.214Z" transform="translate(0 -25.585)" fill="#921af9"/>
</svg>
