<svg xmlns="http://www.w3.org/2000/svg" width="35.738" height="35.595" viewBox="0 0 35.738 35.595">
  <g id="pen-feather-black-diagonal-shape-of-a-bird-wing" transform="translate(0 -0.072)">
    <path id="Tracé_17" data-name="Tracé 17" d="M0,35.667S11.6-1.4,35.738.117c0,0-2.994,4.849-10.551,6.416a16.974,16.974,0,0,0,6.369-.522s-1.711,5.515-11.025,6.273c0,0,5.133,1.331,7.414.57,0,0-.619,4.111-10.1,6.154-.562.12-4.347,1.067-1.306,1.448,0,0,4.371.763,5.514.381,0,0-3.744,5.607-12.928,5.132a9.345,9.345,0,0,0-1.332,0Z" fill="#fff"/>
  </g>
</svg>
