<svg xmlns="http://www.w3.org/2000/svg" xmlns:xlink="http://www.w3.org/1999/xlink" width="1095" height="931" viewBox="0 0 1095 931">
  <defs>
    <clipPath id="clip-path">
      <rect id="Rectangle_59" data-name="Rectangle 59" width="1095" height="931"/>
    </clipPath>
  </defs>
  <g id="GLITCH_OFFICIAL_LOGO" clip-path="url(#clip-path)">
    <rect id="Rectangle_58" data-name="Rectangle 58" width="1095" height="931" fill="rgba(255,255,255,0)"/>
    <g id="Groupe_4" data-name="Groupe 4" transform="translate(-174 -2435)">
      <g id="Groupe_1" data-name="Groupe 1" transform="translate(395.236 2435)">
        <path id="Tracé_1" data-name="Tracé 1" d="M127.825,175.006ZM635.042,742.685a7.348,7.348,0,0,0,1.274-.489c44.961-33.3,78.543-75.623,99.7-127.416,22.23-54.425,27.6-110.733,16.374-168.471-10.862-55.876-35.923-104.749-75.077-145.9-55.391-58.209-123.613-90.338-203.9-94.555-88.473-4.646-165.378,23.969-229.2,85.607-46.616,45.02-75.033,100.054-85.68,164.061a287.618,287.618,0,0,0,6.6,125.651c17.719,63.669,53.174,115.574,104.991,156.423,2.311,1.822,4.788,3.431,7.634,5.457,6.681-50.375,19.46-98.138,42.289-142.913l32.562,14.732a11.111,11.111,0,0,0-.884-1.555q-2.621-1.681-5.256-3.338c-20.158-12.685-37.151-28.644-49.005-49.423-21.348-37.422-21.336-75.213-.311-112.768,4.491-8.023,5.92-15.707,3.246-24.6a102.054,102.054,0,0,1,.674-61.414c3.509-11.079,8.556-13.758,19.74-10.915a133.89,133.89,0,0,1,51.457,25.321c2.136,1.713,3.619,1.75,5.766.206a74.76,74.76,0,0,1,8.836-5.448q75.334-39.57,147.59,5.427c2.226,1.389,3.51,1.586,5.693-.134a134.556,134.556,0,0,1,54.305-25.985c8.29-1.862,13.754,1.392,16.387,9.374,7.018,21.286,7.579,42.711,1.191,64.22a26.943,26.943,0,0,0,2.692,22.321c21.437,37.159,21.949,74.783,1.463,112.453-11.732,21.574-29.088,37.916-49.576,51.108-1.952,1.257-3.94,2.456-5.912,3.682l.6,1c9.028-4.2,18.125-8.272,27.047-12.692,2.961-1.467,4.3-1.462,5.935,1.812,17.111,34.378,28.266,70.7,35.536,108.281C631.793,721.959,633.286,732.207,635.042,742.685ZM384.1,500.068c8.5-.358,16.455-5.039,21.716-14.2,2.336-4.067,3.037-8.214.76-12.622-5.341-10.338-13.871-15.607-25.408-15.664a26.005,26.005,0,0,0-24.341,16.968,14.044,14.044,0,0,0-.018,8.669C360.4,493.511,370.71,500.137,384.1,500.068Zm146.542.012a26.59,26.59,0,0,0,25.57-17.7,11.01,11.01,0,0,0,.169-6.393c-3.364-11.1-13.867-18.425-25.891-18.394a26.649,26.649,0,0,0-25.373,18.552,10.021,10.021,0,0,0,.037,5.574A26.444,26.444,0,0,0,530.64,500.08Zm-100.6,54.414c9.9,5.317,18.538,3.13,26.005-4.578,12.466,8.584,19.352,9.737,26.579,4.262-13.91-2.232-22.613-10.131-26.38-24.064-3.827,14.119-12.446,21.943-26.2,24.381Z" transform="translate(-127.825 -175.006)" fill="#fff"/>
      </g>
    </g>
    <g id="Groupe_7" data-name="Groupe 7" transform="translate(34 543)">
      <path id="Tracé_3" data-name="Tracé 3" d="M5943.446,2097.649v265.4L5821.47,2383h-44.2V2288.59l-75.962,74.46H5598.949l-21.531-173.177h-45.4v193.132h-75.359l-16.687-183.623-46.165-9.51V2363.05H5146.188l-31.329,35.834-88.622-47.422-75.961-90.123v-171.45h281.958v188.83h80.039v-188.83h170.161l60.354,7.759,34.63-7.759,12.306,80.039,57.294-80.039Z" transform="translate(-4940.766 -2047.301)" fill="#fff"/>
      <text id="gliTch" transform="translate(9 290)" fill="#9146ff" font-size="343" font-family="DimitriSwank, Dimitri Swank"><tspan x="0" y="0">gliTch</tspan></text>
    </g>
  </g>
</svg>
