<svg xmlns="http://www.w3.org/2000/svg" xmlns:xlink="http://www.w3.org/1999/xlink" width="907" height="786" viewBox="0 0 907 786">
  <defs>
    <clipPath id="clip-GLITCH_AVATAR_PNG">
      <rect width="907" height="786"/>
    </clipPath>
  </defs>
  <g id="GLITCH_AVATAR_PNG" clip-path="url(#clip-GLITCH_AVATAR_PNG)">
    <rect width="907" height="786" fill="rgba(255,255,255,0)"/>
    <g id="Groupe_2" data-name="Groupe 2" transform="translate(-740.825 401.247)">
      <g id="Groupe_1" data-name="Groupe 1" transform="translate(763.825 -400.994)">
        <path id="Tracé_1" data-name="Tracé 1" d="M127.825,175.006h0Zm678.3,759.159a9.826,9.826,0,0,0,1.7-.654c60.126-44.526,105.035-101.13,133.326-170.393,29.728-72.783,36.908-148.083,21.9-225.3-14.526-74.723-48.04-140.081-100.4-195.109-74.071-77.843-165.3-120.813-272.667-126.452-118.315-6.213-221.16,32.054-306.509,114.482-62.339,60.206-100.342,133.8-114.58,219.4a384.632,384.632,0,0,0,8.828,168.033c23.7,85.145,71.109,154.558,140.4,209.184,3.09,2.436,6.4,4.589,10.209,7.3,8.935-67.367,26.024-131.24,56.553-191.118l43.545,19.7a14.859,14.859,0,0,0-1.182-2.079q-3.5-2.248-7.029-4.464c-26.957-16.964-49.683-38.305-65.535-66.093-28.548-50.045-28.532-100.582-.416-150.805,6.006-10.729,7.917-21.005,4.341-32.9-8.233-27.382-7.733-54.872.9-82.13,4.692-14.816,11.443-18.4,26.4-14.6a179.049,179.049,0,0,1,68.813,33.861c2.857,2.29,4.839,2.34,7.711.276a99.98,99.98,0,0,1,11.817-7.285Q575,384.109,671.628,444.282c2.977,1.858,4.693,2.12,7.613-.179a179.944,179.944,0,0,1,72.622-34.75c11.086-2.49,18.393,1.861,21.914,12.536,9.386,28.466,10.135,57.117,1.592,85.882-3.141,10.577-1.974,20.187,3.6,29.85,28.668,49.693,29.352,100.007,1.956,150.384-15.689,28.851-38.9,50.706-66.3,68.346-2.61,1.681-5.27,3.284-7.906,4.924l.806,1.335c12.073-5.623,24.238-11.063,36.17-16.973,3.959-1.961,5.758-1.955,7.937,2.423,22.882,45.974,37.8,94.542,47.522,144.805C801.783,906.447,803.78,920.152,806.127,934.165ZM470.539,609.713c11.364-.479,22.005-6.739,29.04-18.987,3.124-5.439,4.062-10.985,1.017-16.879-7.143-13.826-18.55-20.871-33.978-20.947a34.777,34.777,0,0,0-32.552,22.691,18.781,18.781,0,0,0-.024,11.594C438.845,600.944,452.636,609.8,470.539,609.713Zm195.971.016c15.5.067,29.175-9.216,34.2-23.663a14.725,14.725,0,0,0,.226-8.549c-4.5-14.844-18.545-24.64-34.625-24.6-15.447.039-29.521,10.19-33.931,24.81a13.4,13.4,0,0,0,.049,7.454C637.076,599.956,650.743,609.66,666.511,609.729ZM531.981,682.5c13.237,7.11,24.791,4.186,34.777-6.123,16.67,11.48,25.879,13.022,35.544,5.7-18.6-2.984-30.24-13.548-35.278-32.181C561.906,668.774,550.38,679.237,531.981,682.5Z" transform="translate(-127.825 -175.006)" fill="#9146ff"/>
      </g>
    </g>
  </g>
</svg>
