<svg xmlns="http://www.w3.org/2000/svg" xmlns:xlink="http://www.w3.org/1999/xlink" width="65" height="56" viewBox="0 0 65 56">
  <defs>
    <clipPath id="clip-path">
      <rect id="Rectangle_2" data-name="Rectangle 2" width="65" height="56"/>
    </clipPath>
  </defs>
  <g id="GLITCH_WEB_ICON_PNG" clip-path="url(#clip-path)">
    <rect id="Rectangle_1" data-name="Rectangle 1" width="65" height="56" fill="rgba(255,255,255,0)"/>
    <g id="Groupe_6" data-name="Groupe 6" transform="translate(-2.478 -4.346)">
      <g id="Ellipse_1" data-name="Ellipse 1" transform="translate(19.743 0) rotate(23.003)" fill="#fff" stroke="#707070" stroke-width="1">
        <ellipse cx="27.04" cy="25.247" rx="27.04" ry="25.247" stroke="none"/>
        <ellipse cx="27.04" cy="25.247" rx="26.54" ry="24.747" fill="none"/>
      </g>
      <path id="Tracé_1" data-name="Tracé 1" d="M127.825,175.006Zm45.946,51.423a.668.668,0,0,0,.115-.044c4.073-3.016,6.4-4.841,9.031-11.542s2.5-10.031,1.483-15.261a26.028,26.028,0,0,0-6.8-13.216,27.574,27.574,0,0,0-39.231-.811,26.733,26.733,0,0,0-7.163,26.243,26.815,26.815,0,0,0,9.51,14.169c.209.165.434.311.691.494a39.577,39.577,0,0,1,3.831-12.946l2.95,1.334a1.008,1.008,0,0,0-.08-.141q-.237-.152-.476-.3a12.811,12.811,0,0,1-4.439-4.477,9.782,9.782,0,0,1-.028-10.215,2.7,2.7,0,0,0,.294-2.228,9.245,9.245,0,0,1,.061-5.563c.318-1,.775-1.246,1.788-.989a12.128,12.128,0,0,1,4.661,2.294.364.364,0,0,0,.522.019,6.771,6.771,0,0,1,.8-.493,12.633,12.633,0,0,1,13.369.491.368.368,0,0,0,.516-.012,12.189,12.189,0,0,1,4.919-2.354,1.141,1.141,0,0,1,1.484.849,9.518,9.518,0,0,1,.108,5.817,2.441,2.441,0,0,0,.244,2.022,9.821,9.821,0,0,1,.133,10.186,12.833,12.833,0,0,1-4.491,4.629c-.177.114-.357.222-.536.334l.055.09c.818-.381,1.642-.749,2.45-1.15.268-.133.39-.132.538.164a38.07,38.07,0,0,1,3.219,9.809C173.477,224.551,173.612,225.48,173.771,226.429Zm-22.732-21.977a2.372,2.372,0,0,0,1.967-1.286,1.122,1.122,0,0,0,.069-1.143,2.445,2.445,0,0,0-2.3-1.419,2.356,2.356,0,0,0-2.2,1.537,1.272,1.272,0,0,0,0,.785A2.454,2.454,0,0,0,151.039,204.451Zm13.274,0a2.409,2.409,0,0,0,2.316-1.6,1,1,0,0,0,.015-.579,2.447,2.447,0,0,0-4.644.014.908.908,0,0,0,0,.5,2.4,2.4,0,0,0,2.309,1.663Zm-9.113,4.929a1.814,1.814,0,0,0,2.356-.415c1.129.778,1.753.882,2.408.386a2.749,2.749,0,0,1-2.39-2.18,2.785,2.785,0,0,1-2.374,2.209Z" transform="translate(-122.245 -172.168)" fill="#9146ff"/>
    </g>
  </g>
</svg>
