<svg xmlns="http://www.w3.org/2000/svg" xmlns:xlink="http://www.w3.org/1999/xlink" width="1902" height="653" viewBox="0 0 1902 653">
  <defs>
    <clipPath id="clip-GLITCH_ICON_TITLE_1">
      <rect width="1902" height="653"/>
    </clipPath>
  </defs>
  <g id="GLITCH_ICON_TITLE_1" data-name="GLITCH_ICON_TITLE – 1" clip-path="url(#clip-GLITCH_ICON_TITLE_1)">
    <rect width="1902" height="653" fill="rgba(255,255,255,0)"/>
    <g id="Groupe_8" data-name="Groupe 8" transform="translate(-159 -40)">
      <g id="Groupe_6" data-name="Groupe 6" transform="translate(101.394 39.695)">
        <g id="Ellipse_1" data-name="Ellipse 1" transform="matrix(0.921, 0.391, -0.391, 0.921, 203.571, 0)" fill="#fff" stroke="#707070" stroke-width="1">
          <ellipse cx="279" cy="260.5" rx="279" ry="260.5" stroke="none"/>
          <ellipse cx="279" cy="260.5" rx="278.5" ry="260" fill="none"/>
        </g>
        <path id="Tracé_1" data-name="Tracé 1" d="M127.825,175.006h0ZM601.9,705.589a6.869,6.869,0,0,0,1.191-.457c42.023-31.119,73.41-70.681,93.183-119.089,20.777-50.869,25.8-103.5,15.3-157.462C701.422,376.356,678,330.676,641.4,292.217c-51.769-54.4-115.53-84.437-190.569-88.378-82.691-4.342-154.571,22.4-214.222,80.013-43.57,42.078-70.13,93.516-80.081,153.34a268.823,268.823,0,0,0,6.17,117.44c16.561,59.509,49.7,108.022,98.13,146.2,2.16,1.7,4.475,3.207,7.135,5.1,6.245-47.083,18.188-91.725,39.525-133.574l30.434,13.769a10.39,10.39,0,0,0-.826-1.453q-2.45-1.571-4.913-3.12c-18.841-11.856-34.724-26.772-45.8-46.193-19.953-34.977-19.941-70.3-.291-105.4,4.2-7.5,5.533-14.681,3.034-22.993a95.385,95.385,0,0,1,.63-57.4c3.279-10.355,8-12.859,18.45-10.2A125.139,125.139,0,0,1,356.3,363.033c2,1.6,3.382,1.635,5.389.193a69.878,69.878,0,0,1,8.259-5.092q70.411-36.984,137.945,5.072c2.081,1.3,3.28,1.482,5.321-.125a125.764,125.764,0,0,1,50.756-24.287c7.748-1.74,12.855,1.3,15.316,8.762a98.211,98.211,0,0,1,1.113,60.023,25.183,25.183,0,0,0,2.516,20.862c20.036,34.731,20.514,69.9,1.367,105.1-10.966,20.164-27.187,35.439-46.337,47.768-1.824,1.175-3.683,2.3-5.526,3.441l.563.933c8.438-3.93,16.94-7.732,25.279-11.863,2.767-1.371,4.024-1.367,5.547,1.694,15.993,32.132,26.419,66.076,33.214,101.206C598.86,686.217,600.256,695.8,601.9,705.589ZM367.351,478.826c7.943-.335,15.38-4.71,20.3-13.27,2.184-3.8,2.839-7.677.711-11.8-4.992-9.663-12.965-14.587-23.748-14.64a24.306,24.306,0,0,0-22.751,15.859,13.126,13.126,0,0,0-.017,8.1C345.2,472.7,354.838,478.89,367.351,478.826Zm136.966.011a24.852,24.852,0,0,0,23.9-16.538,10.291,10.291,0,0,0,.158-5.975c-3.145-10.374-12.961-17.221-24.2-17.192a24.908,24.908,0,0,0-23.715,17.34,9.366,9.366,0,0,0,.034,5.21A24.716,24.716,0,0,0,504.317,478.837ZM410.293,529.7c9.252,4.969,17.326,2.926,24.306-4.279,11.651,8.023,18.087,9.1,24.842,3.983-13-2.086-21.135-9.469-24.656-22.491C431.208,520.1,423.152,527.417,410.293,529.7Z" transform="translate(-70.386 -145.724)" fill="#9146ff"/>
      </g>
      <g id="Groupe_7" data-name="Groupe 7" transform="translate(757 170)">
        <path id="Tracé_3" data-name="Tracé 3" d="M6191.739,2099.589V2431.34l-152.47,24.945h-55.253V2338.266l-94.953,93.075H5761.117L5734.2,2214.87H5677.46v241.415h-94.2L5562.4,2226.757,5504.7,2214.87V2431.34H5195.166L5156,2476.133l-110.777-59.278L4950.276,2304.2V2089.889h352.447v236.038h100.048V2089.889h212.7l75.443,9.7,43.288-9.7,15.382,100.048,71.617-100.048Z" transform="translate(-4938.388 -2036.654)" fill="#fff"/>
        <text id="gliTch" transform="translate(12 363)" fill="#9146ff" font-size="429" font-family="DimitriSwank, Dimitri Swank"><tspan x="0" y="0">gliTch</tspan></text>
      </g>
    </g>
  </g>
</svg>
